<?xml version="1.0" encoding="UTF-8"?>
<!DOCTYPE svg PUBLIC "-//W3C//DTD SVG 1.1//EN" "http://www.w3.org/Graphics/SVG/1.1/DTD/svg11.dtd">
<!-- Creator: CorelDRAW 2021 (64 Bit) -->
<svg xmlns="http://www.w3.org/2000/svg" xml:space="preserve" width="39.5657mm" height="16.465mm" version="1.1" style="shape-rendering:geometricPrecision; text-rendering:geometricPrecision; image-rendering:optimizeQuality; fill-rule:evenodd; clip-rule:evenodd"
viewBox="0 0 36.95 15.38"
 xmlns:xlink="http://www.w3.org/1999/xlink"
 xmlns:xodm="http://www.corel.com/coreldraw/odm/2003">
 <defs>
  <style type="text/css">
   <![CDATA[
    .fil0 {fill:white;fill-rule:nonzero}
   ]]>
  </style>
 </defs>
 <g id="Camada_x0020_1">
  <metadata id="CorelCorpID_0Corel-Layer"/>
  <path class="fil0" d="M4.87 13.19c0,0.34 -0.06,0.64 -0.17,0.9 -0.11,0.27 -0.28,0.49 -0.5,0.69 -0.22,0.19 -0.47,0.34 -0.77,0.44 -0.3,0.1 -0.63,0.15 -1,0.15 -0.77,0 -1.37,-0.19 -1.79,-0.58 -0.43,-0.39 -0.64,-0.92 -0.64,-1.6l0 -4.64c0,-0.08 0.02,-0.14 0.06,-0.19 0.04,-0.05 0.11,-0.08 0.19,-0.08l0.74 0c0.24,0 0.41,0.07 0.53,0.22 0.12,0.14 0.18,0.33 0.18,0.55l0 4.15c0,0.23 0.06,0.41 0.19,0.55 0.12,0.14 0.3,0.21 0.55,0.21 0.25,0 0.44,-0.07 0.56,-0.21 0.12,-0.14 0.18,-0.32 0.18,-0.55l0 -12.34c0,-0.19 0.07,-0.35 0.2,-0.47 0.14,-0.12 0.31,-0.18 0.53,-0.18l0.71 0c0.08,0 0.15,0.03 0.19,0.08 0.04,0.05 0.06,0.11 0.06,0.19l0 12.72zm7.82 1.98c-0.08,0 -0.14,-0.03 -0.18,-0.08 -0.04,-0.05 -0.07,-0.11 -0.08,-0.18l-1.4 -14.4c-0.01,-0.08 0.02,-0.15 0.07,-0.22 0.06,-0.07 0.14,-0.1 0.26,-0.1l0.62 0c0.21,0 0.39,0.06 0.53,0.18 0.14,0.12 0.22,0.27 0.23,0.45l0.65 10.71 0.66 -10.71c0.02,-0.18 0.1,-0.33 0.24,-0.45 0.14,-0.12 0.31,-0.18 0.52,-0.18l0.62 0c0.12,0 0.21,0.03 0.26,0.1 0.06,0.07 0.08,0.14 0.07,0.22l-1.4 14.4c-0.01,0.07 -0.03,0.13 -0.08,0.18 -0.04,0.05 -0.1,0.08 -0.18,0.08l-1.43 0zm13.16 -9.72c-0.25,0 -0.43,-0.07 -0.55,-0.21 -0.12,-0.14 -0.19,-0.32 -0.19,-0.54l0 -2.52c0,-0.23 -0.06,-0.41 -0.18,-0.55 -0.12,-0.14 -0.31,-0.21 -0.55,-0.21 -0.25,0 -0.44,0.07 -0.56,0.21 -0.12,0.14 -0.18,0.33 -0.18,0.55 0,0.69 0.05,1.28 0.14,1.78 0.09,0.5 0.21,0.94 0.36,1.32 0.15,0.38 0.33,0.72 0.52,1.03 0.19,0.3 0.38,0.61 0.58,0.91 0.19,0.3 0.39,0.63 0.58,0.97 0.19,0.34 0.36,0.74 0.51,1.21 0.15,0.46 0.28,1 0.36,1.61 0.09,0.61 0.13,1.34 0.13,2.19 0,0.34 -0.06,0.64 -0.17,0.9 -0.11,0.27 -0.28,0.49 -0.5,0.69 -0.22,0.19 -0.47,0.34 -0.77,0.44 -0.3,0.1 -0.63,0.15 -1,0.15 -0.77,0 -1.37,-0.19 -1.79,-0.58 -0.43,-0.39 -0.64,-0.93 -0.64,-1.6l0 -3.13c0,-0.08 0.02,-0.14 0.06,-0.19 0.04,-0.05 0.11,-0.08 0.19,-0.08l0.71 0c0.25,0 0.43,0.07 0.55,0.21 0.12,0.14 0.18,0.32 0.18,0.54l0 2.64c0,0.23 0.06,0.41 0.19,0.55 0.12,0.14 0.3,0.21 0.55,0.21 0.25,0 0.44,-0.07 0.56,-0.21 0.12,-0.14 0.18,-0.32 0.18,-0.55 0,-0.81 -0.04,-1.51 -0.13,-2.08 -0.09,-0.58 -0.21,-1.07 -0.36,-1.49 -0.15,-0.42 -0.32,-0.78 -0.51,-1.09 -0.19,-0.31 -0.38,-0.6 -0.58,-0.89 -0.19,-0.28 -0.39,-0.58 -0.58,-0.88 -0.19,-0.3 -0.36,-0.66 -0.52,-1.08 -0.15,-0.41 -0.27,-0.9 -0.36,-1.46 -0.09,-0.56 -0.14,-1.24 -0.14,-2.04 0,-0.34 0.06,-0.64 0.17,-0.91 0.11,-0.27 0.28,-0.49 0.49,-0.69 0.22,-0.19 0.47,-0.33 0.77,-0.44 0.3,-0.1 0.63,-0.15 1,-0.15 0.77,0 1.37,0.19 1.8,0.58 0.43,0.39 0.64,0.93 0.64,1.6l0 3c0,0.08 -0.02,0.14 -0.06,0.19 -0.04,0.05 -0.11,0.08 -0.19,0.08l-0.71 0zm10.15 -5.25c0.31,0 0.52,0.06 0.63,0.18 0.11,0.12 0.14,0.28 0.12,0.48l-2.07 12.89 1.61 0c0.19,0 0.35,0.07 0.47,0.2 0.12,0.14 0.18,0.31 0.18,0.53l0 0.43c0,0.08 -0.03,0.15 -0.08,0.19 -0.05,0.04 -0.11,0.06 -0.19,0.06l-3.52 0c-0.08,0 -0.15,-0.03 -0.19,-0.08 -0.05,-0.05 -0.07,-0.11 -0.06,-0.19l2.01 -13.28 -1.21 0c-0.19,0 -0.35,-0.07 -0.47,-0.2 -0.12,-0.14 -0.18,-0.31 -0.18,-0.53l0 -0.43c0,-0.08 0.03,-0.15 0.08,-0.2 0.05,-0.05 0.11,-0.06 0.19,-0.05l2.68 0z"/>
 </g>
</svg>
